<svg
   xmlns:svg="http://www.w3.org/2000/svg"
   xmlns="http://www.w3.org/2000/svg"
   version="1.0"
   width="561.40521"
   height="485.16547">
  <defs />
  <path
     d="M 470.26769,348.89045 C 475.25769,347.75795 477.65519,343.6067 478.79269,340.2142 C 482.45894,329.29545 478.35769,309.5792 466.41519,297.63045 C 454.20269,285.4192 436.85394,281.91295 427.79144,285.66795 C 423.59269,287.41045 421.31269,290.6242 421.11644,294.9692 C 421.14144,294.9642 421.16019,294.94545 421.18519,294.94545 C 423.20644,294.7942 428.44644,294.6467 433.13394,295.7317 C 437.99644,296.62045 441.17519,300.0042 440.86769,300.1792 C 440.71644,300.34545 437.78144,297.74295 433.35769,297.1517 C 429.06144,296.3417 423.94394,296.48295 421.33144,296.29795 C 421.22894,296.29295 421.15144,296.26795 421.08269,296.2342 L 421.08269,296.49795 L 420.14519,296.49795 C 413.83644,296.49795 408.95394,298.39295 405.63769,302.12295 C 401.37519,306.91795 399.78894,314.5942 400.88269,324.9017 C 404.16394,325.14045 407.57644,325.24795 411.04394,325.1792 C 409.82769,318.1242 411.91269,312.4942 416.50769,310.67795 C 421.83019,308.57295 431.46894,311.83045 441.13144,327.92795 C 444.90644,334.22795 446.69269,339.5442 447.17144,343.87545 C 447.17644,343.87545 447.17644,343.88045 447.17644,343.88045 C 447.24019,344.0317 447.25019,344.18295 447.23519,344.3342 C 447.75769,350.0717 445.93144,353.99795 443.32894,356.0292 C 438.39269,359.8867 430.67769,358.15795 423.92394,351.78545 C 420.70644,352.2542 417.14644,352.5967 413.15269,352.76795 C 417.27894,357.6017 421.31644,361.07795 425.16519,363.5392 C 425.20894,363.55795 425.25269,363.59295 425.29644,363.6217 C 429.75394,366.4492 433.95394,367.9042 437.75769,368.49545 C 437.78144,368.49545 437.81144,368.49045 437.84019,368.49545 C 437.85519,368.50045 437.86519,368.5092 437.87894,368.5092 C 441.43394,369.0467 444.64269,368.8267 447.37144,368.26045 C 458.36269,365.98045 466.47269,357.02045 468.51894,349.74545 L 468.68519,349.1542 L 469.03144,349.10545 C 468.96394,349.0217 468.91519,348.9342 468.91519,348.8417 C 470.16519,344.6817 466.56144,328.05545 466.50769,327.9817 C 467.32769,327.56295 472.23519,343.1042 470.27144,348.87045 C 470.27144,348.88045 470.26769,348.88545 470.26769,348.89045 L 470.26769,348.89045 z"
     style="fill:#ffffff" />
  <path
     d="M 418.89019,270.6142 C 418.77269,271.3167 418.67519,272.04045 418.59769,272.7717 C 418.59769,272.87545 418.59269,272.97295 418.56269,273.07045 C 418.07019,278.0067 418.51394,283.59795 420.58019,289.6717 C 421.87894,287.1567 424.06644,285.1842 427.07394,283.9392 C 438.10394,279.3692 456.34644,284.91545 467.73769,296.30795 C 476.70269,305.26795 481.25394,317.83545 481.89769,328.49545 C 499.65644,329.7842 514.35894,328.45045 527.72769,303.0992 C 532.38144,294.2767 533.01144,287.74295 524.02644,274.49545 L 523.80769,274.1742 L 523.88019,273.79295 C 525.52144,265.33045 526.00394,259.3492 523.37769,255.6967 C 521.69269,253.35295 518.68519,251.89795 514.00769,251.1367 L 514.00769,257.0742 C 514.00769,257.5917 513.58769,258.0117 513.07019,258.0117 C 512.55269,258.0117 512.13269,257.5917 512.13269,257.0742 L 512.13269,250.85795 L 512.13269,250.03795 C 512.13269,230.78545 508.55269,227.61545 485.16019,227.51295 C 487.19644,236.1367 486.80019,240.1117 486.78144,240.2867 C 486.72269,240.7992 486.25894,241.17045 485.74519,241.1117 C 485.22769,241.05795 484.86144,240.5942 484.91519,240.0767 C 484.92019,240.02795 485.31644,235.84795 483.07019,226.83045 C 480.39394,218.28545 474.35394,213.8567 466.50769,214.6817 C 456.09769,215.77545 444.47144,226.30295 442.74269,242.0642 C 446.70769,238.66545 451.74644,235.0867 452.12769,235.58045 C 452.51769,236.07295 449.87144,238.2017 443.90019,243.25545 C 437.95269,248.3342 435.12519,250.9317 434.77394,250.5892 C 434.47644,250.3067 437.65519,246.62045 441.13144,243.46545 L 438.91519,243.46545 C 435.94644,243.46545 430.06644,247.6117 425.37894,254.5492 C 424.89644,255.26295 424.38769,256.06295 423.88019,256.93795 C 426.47769,254.8567 429.73519,252.95795 433.46019,251.50295 C 444.19269,247.30795 454.62269,248.34795 456.76144,253.8267 C 458.90019,259.30045 451.93269,267.13295 441.20019,271.3217 C 431.62894,275.06295 422.31769,274.62795 418.89019,270.6142 L 418.89019,270.6142 z"
     style="fill:#ffffff" />
  <path
     d="M 77.34269,232.8892 C 82.40644,235.1067 86.04394,238.66045 87.93769,242.9042 C 90.92644,240.35545 94.12019,235.4242 93.11894,230.7217 C 92.06394,225.78545 86.62019,222.23045 77.36644,220.44795 C 69.90644,219.01795 64.27144,219.95545 60.61894,223.24045 C 56.86394,226.62045 56.08269,231.72795 55.95019,234.4717 C 62.07894,229.95045 70.70644,229.9842 77.34269,232.8892 L 77.34269,232.8892 z"
     style="fill:#ffffff" />
  <path
     d="M 81.10269,248.2017 C 83.83644,249.0217 85.87769,250.45295 87.42519,252.0842 C 87.80644,249.3542 87.48894,246.90795 86.70769,244.74045 C 86.68269,244.6717 86.65394,244.60795 86.64394,244.5442 C 84.86644,239.81295 80.81394,236.4592 76.59019,234.60795 C 69.01269,231.28795 58.63144,231.99045 53.45019,239.7642 C 45.56519,251.59045 48.25019,262.56295 49.69144,266.58045 C 56.69269,255.98545 72.22019,245.53545 81.10269,248.2017 L 81.10269,248.2017 z"
     style="fill:#ffffff" />
  <path
     d="M 56.03894,284.85295 C 60.42769,274.9792 70.26269,266.3467 82.49894,268.79795 C 83.10894,267.1817 84.15894,265.66295 85.67269,264.3342 C 86.97144,263.1917 88.49519,262.2742 90.10644,261.58045 C 89.89144,260.3017 89.22269,257.45045 87.31769,254.80795 C 87.25894,254.74545 87.20519,254.6867 87.16644,254.61295 C 85.73144,252.6942 83.64144,250.9217 80.56019,249.9992 C 71.57519,247.2992 54.25644,260.26295 49.30019,271.07795 C 45.34519,279.70545 51.92769,286.3367 54.54394,288.5292 C 55.01769,287.24045 55.53144,286.00045 56.03894,284.85295 L 56.03894,284.85295 z"
     style="fill:#ffffff" />
  <path
     d="M 82.02519,270.6142 C 70.11144,268.27045 61.52644,277.12295 57.75269,285.6142 C 53.23644,295.77045 53.32394,302.3967 58.02644,307.09795 C 62.23519,311.30795 78.09894,308.2117 85.38394,306.28295 C 84.88144,305.5267 84.58394,304.7592 84.58394,304.00795 C 84.58394,303.07045 84.71019,301.78545 84.86644,300.15545 C 85.01769,298.6317 85.18894,296.8342 85.30144,294.8667 C 82.20019,297.45545 75.40394,302.6017 70.50644,302.6017 C 69.98894,302.6017 69.56894,302.1817 69.56894,301.6642 C 69.56894,301.1467 69.98894,300.7267 70.50644,300.7267 C 75.63394,300.7267 83.82644,293.70545 85.40894,292.30795 C 85.51644,287.2592 85.05769,281.4442 82.78644,276.2242 C 81.96144,274.32545 81.73644,272.43045 82.02519,270.6142 L 82.02519,270.6142 z"
     style="fill:#ffffff" />
  <path
     d="M 128.12394,246.09795 L 128.26019,245.57545 C 130.17394,238.3092 126.06769,232.55795 124.98394,231.19545 C 118.73394,231.26295 112.17644,231.4392 105.27144,231.7317 L 103.92894,231.79045 L 104.33894,230.5117 C 105.21394,227.7867 106.41894,225.1067 107.89894,222.4792 C 103.34394,222.76295 97.57144,224.19295 93.87519,227.4992 C 94.41769,228.47545 94.76394,229.43795 94.95519,230.33045 C 96.11144,235.75545 92.64519,241.6592 88.64644,244.74545 C 89.54894,247.62545 89.68644,250.76045 88.97769,253.97795 C 90.79019,256.62045 91.56644,259.38795 91.87394,260.9167 C 95.67769,259.72045 99.71019,259.80295 102.43019,261.4342 C 102.87019,261.69795 103.30894,261.9717 103.74894,262.2542 C 106.00394,259.00795 117.02519,251.1167 117.90394,253.2167 C 117.25019,252.2942 108.33394,259.6667 104.95894,263.06045 C 112.78144,268.47545 120.10644,277.6742 116.48269,298.07045 C 116.39019,298.58295 115.90144,298.9192 115.39394,298.8317 C 114.88644,298.7392 114.54394,298.25045 114.63769,297.74295 C 118.43144,276.40545 110.10644,268.2267 101.46894,263.04545 C 99.01769,261.57545 95.12019,261.6742 91.58019,263.0067 C 91.56144,263.0167 91.54144,263.0167 91.52144,263.0267 C 89.83769,263.66545 88.23644,264.5792 86.91269,265.74045 C 85.89269,266.6342 84.58894,268.1042 84.02644,270.0817 C 83.59769,271.59045 83.60269,273.3967 84.50519,275.47795 C 88.30394,284.21295 87.32269,294.30545 86.73144,300.33545 C 86.58019,301.91795 86.45894,303.16295 86.45894,304.00795 C 86.45894,304.63295 86.84894,305.33045 87.50394,306.05295 C 87.60144,306.1217 87.68394,306.20545 87.74769,306.30295 C 90.82394,309.43795 98.63144,312.92795 101.94644,312.92795 C 102.63019,312.92795 103.36769,313.0317 104.22269,313.14795 C 108.90019,313.79795 116.72769,314.8867 128.42644,299.6817 C 141.64394,282.4942 137.58644,255.55545 128.50394,246.47795 L 128.12394,246.09795 z"
     style="fill:#ffffff" />
  <path
     d="M 164.00769,232.44045 C 159.08019,232.03045 153.91019,231.71795 148.48019,231.50295 C 151.19519,234.1592 156.39519,240.2092 155.99519,240.58045 C 155.69144,240.86295 148.56269,234.22795 146.52144,231.5567 C 146.49269,231.51795 146.48769,231.47295 146.47269,231.4292 C 140.42394,231.2192 134.04644,231.1367 127.29894,231.18045 C 128.99769,233.67045 131.70769,238.9442 130.18394,245.5317 C 137.44019,253.2167 141.51769,270.87295 136.89769,286.81545 C 141.82019,288.39295 145.51144,288.4467 148.15769,286.9567 C 150.35519,285.7167 151.86894,283.3342 152.66019,279.8667 L 153.03519,278.2067 L 153.38769,278.56295 C 153.88019,276.6442 155.22269,272.8217 157.51269,269.83295 C 159.78394,266.26795 163.90019,265.24295 163.90019,265.88795 C 163.82644,265.9067 160.75019,266.9767 158.85644,270.2717 C 156.80519,273.3092 155.40894,277.33295 154.59394,279.3542 C 154.54894,279.4517 154.49019,279.52045 154.42269,279.5742 C 156.63394,281.6692 159.39769,282.1867 162.24019,281.0092 C 167.72769,278.7342 173.28519,270.1067 173.28519,258.0167 C 173.28519,241.26795 165.23769,233.5242 164.00769,232.44045 L 164.00769,232.44045 z"
     style="fill:#ffffff" />
  <path
     d="M 124.55894,401.92795 C 130.79394,378.2992 150.29144,354.18795 157.41519,351.0242 C 159.27144,350.1992 161.84894,349.43295 164.72519,348.98295 C 150.58894,323.7342 125.08144,320.84795 114.97894,325.05795 C 110.68769,326.8442 96.33644,339.7692 79.32019,357.35295 C 105.63769,367.7967 121.89769,384.00795 124.55894,401.92795 L 124.55894,401.92795 z"
     style="fill:#ff173d" />
  <path
     d="M 102.26394,417.1617 C 97.30269,401.3217 82.40144,387.3667 60.29144,377.8167 C 36.10269,404.8617 11.89769,436.1417 5.69644,455.87795 L 4.64644,459.18295 C 2.47894,465.95545 1.04894,470.43295 2.38644,471.9617 C 3.69519,473.46045 8.52894,472.84045 13.08394,472.04045 C 15.41394,471.6292 60.66769,463.46045 99.87144,443.6467 C 104.36894,436.3317 105.24769,426.69295 102.26394,417.1617 L 102.26394,417.1617 z"
     style="fill:#ff173d" />
  <path
     d="M 122.94769,410.1842 L 122.94769,410.16545 C 124.75394,389.6867 107.92769,370.5167 77.91394,358.81295 C 72.64019,364.29545 67.13269,370.2042 61.60519,376.3517 C 83.90519,386.1167 98.96894,400.37545 104.05144,416.60045 C 106.86894,425.6042 106.40019,434.72045 102.84019,442.11295 C 110.55019,438.06545 117.97769,433.5492 124.73019,428.5442 C 123.39644,425.43295 122.60144,421.27295 122.60144,415.7067 C 122.60144,413.89045 122.72269,412.0492 122.94769,410.1842 L 122.94769,410.1842 z"
     style="fill:#ffffff" />
  <path
     d="M 184.54394,418.76795 C 179.66644,425.8142 172.87019,429.52045 169.07144,427.20045 C 166.35644,425.54045 163.42144,419.71045 174.33394,399.30545 C 176.06644,396.06795 177.97144,393.2267 179.93519,390.7992 C 179.95519,390.77045 179.97269,390.74545 179.99769,390.7167 C 186.09144,383.2067 192.71394,379.7692 196.41519,381.3517 C 198.25019,382.13795 200.86269,384.74045 198.23144,393.2367 C 200.92144,393.5142 203.69019,393.70045 206.34644,393.7342 C 209.40269,381.59545 208.66519,372.44545 204.24144,367.92795 C 200.72144,364.3342 194.79894,363.5042 186.64394,365.46295 L 185.48644,365.74045 L 185.48644,365.44795 C 181.82019,366.31295 171.01894,372.35295 171.01394,372.6017 C 170.20894,371.80545 180.66769,364.3542 185.29644,364.10545 C 185.36019,364.09045 185.41394,364.10045 185.46644,364.10545 C 185.36394,359.0717 183.54894,355.35045 180.03269,353.06545 C 173.70519,348.9492 163.44144,350.3942 158.17769,352.73795 C 150.47769,356.16045 127.83019,385.0092 124.81769,410.2967 C 124.81269,410.3067 124.81269,410.3217 124.81269,410.33045 C 124.81269,410.33545 124.80769,410.34045 124.80769,410.34545 C 124.59394,412.1567 124.47644,413.9442 124.47644,415.7067 C 124.47644,435.1117 134.57894,435.85795 143.16769,435.88795 C 141.72269,432.74295 139.77394,422.3867 140.79894,422.2792 C 140.82894,422.3667 143.65644,432.34795 144.64644,435.8242 C 144.65144,435.84795 144.64269,435.86795 144.64269,435.88795 L 144.92019,435.88795 L 145.09644,436.60045 C 146.62019,442.6942 151.33644,447.03545 157.40144,447.93295 C 162.88894,448.7392 177.35269,447.54795 194.30019,419.7892 C 190.94144,419.3592 187.68894,418.87545 184.69019,418.39295 C 184.67144,418.5192 184.62269,418.6517 184.54394,418.76795 L 184.54394,418.76795 z"
     style="fill:#ffffff" />
  <path
     d="M 415.41894,406.49295 C 410.52144,420.9167 402.53769,435.1067 395.46269,442.1817 C 391.97644,445.66795 388.43144,448.03295 385.06644,449.5442 C 387.61144,467.30795 404.07519,483.24545 409.79894,483.28545 C 413.21144,482.75295 431.62894,469.3392 454.44644,450.36045 C 429.03144,440.5942 418.36769,415.11545 415.41894,406.49295 L 415.41894,406.49295 z"
     style="fill:#ff173d" />
  <path
     d="M 480.16894,341.83045 C 478.19144,346.8742 474.75394,349.95545 470.14519,350.8042 C 467.66894,358.68045 459.33019,367.6992 447.75269,370.0967 C 445.03769,370.65795 441.88394,370.9017 438.40144,370.4817 C 435.01269,390.11545 461.33644,423.6417 475.94644,431.91795 C 516.09269,396.41045 559.49019,351.8492 559.53019,330.3217 C 557.46894,326.82045 507.28894,331.60045 480.16894,341.83045 L 480.16894,341.83045 z"
     style="fill:#ff173d" />
  <path
     d="M 416.90769,373.76795 C 415.29144,369.0417 412.60144,365.8342 408.91019,364.2317 C 403.21144,361.7517 396.57519,363.7242 394.20769,364.5842 C 398.35269,367.8892 399.67144,384.82795 398.66019,384.73045 C 398.50394,384.7792 396.62519,369.29045 393.12394,365.43795 C 393.03144,365.3117 393.00144,365.1892 393.00144,365.0717 L 392.71894,365.2042 L 392.25894,364.74545 C 391.18519,363.66545 390.14519,362.53795 389.14394,361.4442 C 385.25269,357.20045 381.58019,353.1917 376.42394,353.3192 C 370.19394,353.47045 361.95644,359.7842 351.26769,372.5917 C 354.09019,373.70545 356.64394,374.9017 358.91019,376.10295 C 363.14769,369.1292 367.29894,365.85295 370.30144,367.12295 C 374.69644,368.97795 374.72019,379.5842 370.36519,396.2292 C 364.12894,420.0667 351.63394,426.60045 351.10644,426.8692 C 350.64269,427.09795 350.08144,426.91295 349.84769,426.4492 C 349.61269,425.99045 349.80269,425.4242 350.26269,425.1942 C 350.29644,425.1742 351.30269,424.64295 352.86019,423.36795 C 347.40644,416.4642 350.09144,400.01795 350.21394,399.29545 C 350.24769,399.0667 350.37519,398.88045 350.54019,398.7442 C 347.63019,396.93295 344.39269,395.15545 340.96019,393.6567 C 337.58144,412.65545 335.17394,431.67795 343.63144,439.9692 C 347.98144,444.2367 354.83269,445.36045 364.57894,443.4117 L 365.38894,443.2517 L 365.48644,443.5442 C 368.46019,442.9817 377.83019,438.9192 377.83019,438.6267 C 378.62144,439.49045 369.92519,444.6917 365.99519,444.8617 C 367.07894,447.1967 369.25644,448.8467 372.23519,449.5492 C 377.40144,450.77045 385.86769,449.12545 394.13394,440.85295 C 406.95144,428.04045 422.73269,390.7942 416.90769,373.76795 L 416.90769,373.76795 z"
     style="fill:#ffffff" />
  <path
     d="M 436.55144,370.1992 C 432.92769,369.52545 428.98769,368.1042 424.84269,365.56045 L 417.99644,371.38045 C 418.24019,371.9517 418.47519,372.54295 418.68519,373.16295 C 421.31644,380.86295 419.90644,392.0642 416.41019,403.4217 C 417.35644,406.7767 427.05894,438.48045 456.08769,448.9942 C 462.00019,444.0517 468.18769,438.7542 474.46644,433.2217 C 459.38769,424.20795 433.16269,390.3117 436.55144,370.1992 L 436.55144,370.1992 z"
     style="fill:#ffffff" />
  <path
     d="M 306.71769,297.09795 C 303.81644,301.81545 304.39269,309.1692 309.88144,312.6017 L 314.64644,315.65295 C 329.33894,325.16045 363.75394,347.42045 389.26144,350.0092 C 403.87019,351.48795 414.69644,351.17545 423.10894,350.0042 C 423.14769,349.93545 423.17769,349.8667 423.23644,349.80795 C 423.59269,349.4517 424.16894,349.4467 424.54019,349.7942 C 433.86144,348.3392 440.10144,345.8242 445.29644,343.6567 C 444.76894,339.6867 443.04519,334.7692 439.52019,328.89545 C 438.19144,326.67795 436.87394,324.75045 435.57519,323.0267 C 424.39269,326.9567 411.42394,327.5967 400.14519,326.71295 C 400.14019,326.71795 400.13519,326.71795 400.13019,326.71795 C 399.99894,326.7367 399.86644,326.71795 399.74519,326.67795 C 391.13144,325.97545 383.53894,324.39295 378.54894,322.73295 C 365.72144,318.45545 340.79394,306.2092 322.98144,295.4242 C 316.02894,291.2142 309.95019,291.8442 306.71769,297.09795 L 306.71769,297.09795 z"
     style="fill:#ffccb2" />
  <path
     d="M 343.74394,280.97545 C 343.74894,280.9367 340.22769,274.64295 333.47519,269.5792 C 327.04394,264.2767 318.87519,259.2317 314.73519,256.60545 C 314.04644,256.16545 313.68519,255.87795 313.33394,255.7217 C 304.90644,257.8067 302.84519,261.49295 302.43019,260.9117 C 301.83894,260.5267 308.23644,254.3642 315.34519,253.5142 C 322.13769,252.11295 330.19394,253.69045 330.01269,254.3742 C 329.93519,255.1792 325.59394,253.66045 315.80394,255.11545 C 315.56519,255.16545 315.34519,255.2192 315.11144,255.2717 C 315.13519,255.2767 315.15519,255.2817 315.17394,255.2917 C 318.56769,257.0592 326.89769,262.1617 333.58769,267.9242 C 340.64269,273.39295 344.34894,280.78045 343.74394,280.97545 z M 401.36144,257.01545 C 391.64394,258.78295 380.62894,260.7942 370.15519,257.9817 C 361.30269,255.6042 353.70519,249.0417 346.36144,242.6992 C 334.17769,232.1767 321.07519,219.84545 301.14394,226.8142 C 289.63269,230.88545 283.05019,239.41795 281.06269,248.3392 C 279.10519,257.0692 282.70894,267.0692 290.69644,275.1117 C 293.98269,276.7767 297.35644,278.46545 300.87769,280.1692 C 358.06019,307.8792 411.67769,275.5017 416.75644,272.2842 C 416.94644,270.66295 417.22019,269.11045 417.57144,267.63045 C 417.33269,265.66795 418.08019,263.49545 419.61269,261.3367 C 420.19894,259.92545 420.82394,258.6167 421.46394,257.42545 C 417.98644,253.98295 410.28144,255.3892 401.36144,257.01545 L 401.36144,257.01545 z"
     style="fill:#ffccb2" />
  <path
     d="M 234.77894,258.90545 C 218.27019,250.56045 181.32144,249.30045 174.36894,249.1342 C 174.85269,251.7817 175.16019,254.72045 175.16019,258.0167 C 175.16019,262.3717 174.49519,266.2242 173.41144,269.5442 C 177.67394,269.32545 190.37894,268.9692 199.02644,271.7667 C 211.82019,265.86295 224.89144,261.6492 234.77894,258.90545 L 234.77894,258.90545 z"
     style="fill:#ffccb2" />
  <path
     d="M 341.80519,334.73045 C 341.83894,334.60295 341.90269,334.49045 341.98144,334.39295 C 330.33019,328.0317 320.08644,321.40545 313.62644,317.22545 L 309.52019,314.5942 C 275.60394,348.76795 278.42144,370.0767 280.11144,375.8142 C 281.36144,380.0667 283.88519,383.0117 286.87894,383.7492 L 287.05394,383.7192 C 287.23519,383.47045 287.52269,383.3092 287.85019,383.3242 C 287.87894,383.3292 288.21644,383.34795 288.78769,383.38295 C 293.07519,382.4892 297.86519,381.0392 302.88894,378.7142 C 333.00144,364.81795 341.72269,335.02795 341.80519,334.73045 L 341.80519,334.73045 z"
     style="fill:#ffccb2" />
  <path
     d="M 404.17394,103.78295 C 403.96394,91.05295 401.52144,66.06295 397.61519,66.06295 C 381.06269,66.06295 364.11519,90.5267 359.95894,96.93795 C 366.83894,96.60545 390.95019,96.07295 404.17394,103.78295 L 404.17394,103.78295 z"
     style="fill:#ffccb2" />
  <path
     d="M 183.89519,167.0842 C 173.95394,156.26795 160.77519,147.96295 147.60144,141.68795 C 143.64144,143.03545 110.28144,155.0817 83.51394,186.0092 C 110.84769,183.87045 128.36269,194.4717 131.85894,196.81545 C 152.62519,180.79045 177.88394,169.62795 183.89519,167.0842 L 183.89519,167.0842 z"
     style="fill:#007fff" />
  <path
     d="M 357.39144,97.4942 C 358.20644,96.1367 377.60644,64.18795 397.61519,64.18795 C 399.64269,64.18795 402.56644,66.18545 404.58894,83.4367 C 405.70144,92.9042 406.06269,103.05545 406.06269,105.4867 L 406.06269,107.2542 L 404.59769,106.26295 C 390.49144,96.70295 358.58269,98.89045 358.26019,98.91045 L 356.45894,99.0417 L 357.39144,97.4942 z M 423.45019,152.6992 C 425.33519,159.60795 425.56019,163.17295 425.41894,163.1917 C 424.93519,163.69545 421.21394,139.09545 405.97019,127.0067 C 391.42894,113.5392 367.09394,116.7667 367.55269,116.64045 C 367.48894,116.3817 370.54019,115.31795 377.30769,115.24795 C 383.83144,115.3667 395.17894,116.16045 406.68269,125.4442 C 417.89894,135.02795 421.35644,146.06795 423.45019,152.6992 z M 111.20019,229.63295 C 111.28519,229.63045 111.37019,229.62795 111.45644,229.62545 C 113.72269,229.5517 115.93769,229.4942 118.13019,229.44545 C 118.99769,229.42545 119.87019,229.4042 120.72644,229.38795 C 120.75394,229.38795 120.78269,229.38795 120.81144,229.3867 C 122.22144,229.3617 123.61269,229.3417 124.99269,229.3267 C 125.14269,229.32545 125.29769,229.3217 125.44769,229.32045 L 125.45269,229.32045 L 125.45769,229.32045 L 125.46269,229.32045 C 128.44769,229.29045 131.33894,229.29545 134.18769,229.3142 C 135.60144,229.3242 137.00519,229.33795 138.38519,229.3592 C 139.21519,229.37295 140.03269,229.39045 140.85019,229.40795 C 142.05894,229.43295 143.25519,229.4642 144.43769,229.49795 C 145.20019,229.52045 145.96519,229.5417 146.71769,229.56795 C 148.26894,229.62295 149.80019,229.68545 151.31019,229.7542 C 151.85769,229.78045 152.40394,229.80545 152.94519,229.83295 C 154.49144,229.9117 156.01644,229.9992 157.52144,230.09295 C 158.16644,230.1342 158.80144,230.1792 159.43894,230.2217 C 160.63144,230.3042 161.81019,230.3917 162.97519,230.48295 C 163.56894,230.53045 164.16644,230.5767 164.75394,230.6267 C 166.41019,230.76545 168.04769,230.9142 169.65144,231.0742 C 169.68144,231.07795 169.71269,231.0792 169.74144,231.08295 L 169.74519,231.08295 C 171.57519,231.26795 173.37769,231.4692 175.15019,231.67795 C 175.15144,231.67795 175.15144,231.67795 175.15269,231.6792 C 175.56644,231.7292 175.96144,231.78545 176.37019,231.8367 C 177.50769,231.97795 178.63519,232.1217 179.74519,232.2742 C 180.33269,232.3542 180.91019,232.43795 181.49019,232.5217 C 182.50894,232.66795 183.51894,232.8192 184.52019,232.97545 C 185.02644,233.0542 185.53769,233.13295 186.04144,233.2142 C 187.48894,233.4492 188.92144,233.6917 190.32769,233.94545 C 190.37019,233.9542 190.41519,233.9617 190.45894,233.9692 C 191.87644,234.2267 193.26644,234.4967 194.64394,234.7742 C 195.06269,234.85795 195.47769,234.9442 195.89394,235.03045 C 196.90644,235.24045 197.90769,235.4542 198.89894,235.6742 C 199.32894,235.7692 199.75894,235.8642 200.18519,235.96045 C 201.38019,236.23295 202.56269,236.51295 203.73019,236.80045 C 204.76269,237.0542 205.77644,237.3192 206.78894,237.5842 C 207.33144,237.72545 207.88519,237.8617 208.42144,238.0067 C 208.43519,238.01045 208.44769,238.0142 208.46019,238.01795 C 209.26769,238.23795 210.05519,238.46795 210.84894,238.69295 C 211.45019,238.8642 212.06269,239.02795 212.65519,239.20295 C 212.66519,239.20795 212.67894,239.21295 212.68894,239.21295 C 215.20019,239.9517 217.64644,240.7317 220.05019,241.54045 C 222.00144,242.1967 223.91894,242.8767 225.81144,243.57545 C 226.70269,243.9042 227.59519,244.2317 228.47519,244.5692 C 228.49019,244.5792 228.50894,244.5842 228.52394,244.5892 C 229.75394,245.06295 230.97519,245.54545 232.18644,246.0342 C 232.24019,246.05795 232.29894,246.08295 232.35269,246.10295 C 233.54394,246.58545 234.72519,247.0792 235.90144,247.5767 C 235.96519,247.6067 236.02894,247.63545 236.09769,247.66045 C 236.66519,247.9042 237.23019,248.1542 237.79644,248.40045 C 240.14519,249.4217 242.47019,250.47295 244.78269,251.5542 C 245.04144,251.67545 245.30019,251.7967 245.55894,251.91795 C 250.45269,254.2242 255.30394,256.65545 260.22144,259.19545 C 260.53644,259.3592 260.85019,259.5192 261.16519,259.6817 C 261.30269,259.7542 261.43894,259.82795 261.58019,259.8967 C 262.30644,260.27545 263.04019,260.6592 263.77269,261.0417 C 266.61644,262.5267 269.48894,264.0417 272.42019,265.5892 C 275.11144,267.01045 277.83519,268.45045 280.60394,269.9017 C 275.29144,264.2767 264.90144,250.32545 259.03644,235.77545 C 252.45894,220.66795 251.33644,205.88295 251.55144,205.9317 C 251.84894,205.86295 253.34394,219.2517 259.53519,233.57795 C 265.38894,248.0317 275.97019,262.5717 282.00019,269.3692 C 282.80644,270.2867 283.08394,270.87295 283.05519,271.18045 C 284.07144,271.70795 285.09644,272.24045 286.13144,272.7767 C 279.99394,264.9992 277.42519,255.99045 279.23144,247.92795 C 280.73144,241.2542 285.18894,230.51295 300.61394,225.1017 C 321.56144,217.89795 334.99894,230.4042 347.58644,241.27795 C 348.37269,241.9617 349.15894,242.63545 349.94019,243.3042 C 334.47144,215.79045 338.29894,169.5792 352.89894,146.68295 C 360.16019,135.2967 369.35894,130.3067 379.49019,132.2542 C 416.86394,139.4417 423.52394,181.3367 427.92769,209.0567 C 429.28144,217.56295 430.45269,224.91045 432.24519,228.50045 C 432.64519,229.30045 433.30394,230.26795 434.16894,230.3117 C 435.27644,230.36545 436.77144,229.0317 438.26519,226.6592 C 447.13769,212.53795 453.41144,169.6917 434.33894,134.5592 C 430.76019,127.96795 426.98644,121.6167 423.03144,115.49795 C 422.86019,116.46045 422.67894,117.41045 422.46394,118.36295 C 422.35269,118.86545 421.84894,119.18295 421.34644,119.0717 C 420.84394,118.96045 420.52644,118.4617 420.63769,117.96295 L 420.63769,117.95295 C 426.36519,92.3667 414.13394,62.0792 407.67894,52.1917 C 405.65769,49.10045 404.74519,48.7342 404.63769,48.70045 C 403.93394,48.7142 358.23644,51.8592 337.54269,100.05795 C 337.51769,100.1117 337.48894,100.16545 337.46394,100.22295 C 337.26394,100.6967 336.71269,100.9217 336.23394,100.7167 C 335.76019,100.5117 335.54019,99.9592 335.74019,99.4867 C 344.86644,78.1242 358.84144,65.4042 371.82519,57.83545 C 353.59769,42.9817 333.26019,31.0242 310.87769,22.0642 C 266.85894,4.43795 215.17394,-1.6608 157.24519,3.87045 C 168.42644,11.48795 218.26519,47.1917 229.09519,85.5217 L 229.48144,86.88795 L 228.07519,86.70295 C 227.46894,86.62545 167.24019,79.4667 97.43519,123.30545 C 104.46644,124.6817 126.02894,129.4567 147.81144,139.72545 C 148.01644,139.74545 148.20144,139.84295 148.34769,139.9792 C 162.13269,146.5367 175.95519,155.3017 186.18519,166.81545 L 187.06894,167.8017 L 185.83769,168.3042 C 185.16519,168.57795 118.81269,196.0092 106.56644,229.80295 C 108.12894,229.74045 109.67144,229.6867 111.20019,229.63295 L 111.20019,229.63295 z"
     style="fill:#007fff" />
  <path
     d="M 368.54894,395.75545 C 369.46144,392.2792 370.14019,389.21795 370.63394,386.51795 C 368.15769,384.1342 351.21394,368.97295 321.30769,368.87045 C 316.43394,373.1917 310.61394,377.21545 303.67519,380.4192 C 300.57519,381.8492 297.57644,382.95795 294.73019,383.8167 C 303.62644,384.53045 319.41769,386.0442 331.49269,388.58795 C 347.08894,391.8742 360.93144,403.57795 364.66144,406.9467 C 366.09269,403.7492 367.43019,400.04295 368.54894,395.75545 L 368.54894,395.75545 z"
     style="fill:#007fff" />
  <path
     d="M 278.35769,376.2492 C 276.60019,370.2717 273.61144,348.18795 307.99144,313.4267 C 302.45019,309.18795 301.96644,301.2192 305.16519,296.0192 C 308.13394,291.19545 314.63769,288.06045 323.99769,293.7242 C 330.62894,297.73795 338.24519,301.9517 345.84394,305.88295 C 345.78519,304.6867 345.78519,301.8792 345.57519,299.60295 C 345.37019,297.3917 345.05769,294.40795 344.64644,293.07045 C 330.71644,292.51795 315.79394,289.3642 300.10644,281.7617 C 289.71019,276.72795 280.49644,271.8592 271.59019,267.1517 C 264.65644,263.49045 258.03144,259.9942 251.41519,256.71295 C 246.43894,257.72795 181.06644,271.58545 160.91644,303.0067 C 186.22269,303.36795 206.87394,311.8492 219.78394,318.9492 C 219.95019,318.98295 220.09644,319.0717 220.22769,319.19295 C 229.23644,324.19295 234.35394,328.4367 234.47644,328.5392 C 234.87144,328.87545 234.92019,329.4667 234.58894,329.8617 C 234.25144,330.25795 233.66019,330.3067 233.26519,329.9742 C 233.16269,329.8817 229.31519,326.70295 222.46894,322.64045 C 226.41019,329.30045 227.52769,334.3792 226.08769,338.80295 C 223.49019,346.7617 212.59144,352.2542 193.48019,359.2717 C 221.59019,368.7342 234.95519,358.80295 236.99019,357.0692 C 233.03144,347.3767 233.21144,341.8792 233.28519,341.9467 C 233.69019,341.8492 235.29644,349.2667 238.42644,356.69795 C 238.48519,356.7367 238.54894,356.7617 238.59769,356.81545 C 238.83144,357.0442 238.90019,357.3667 238.84144,357.66545 C 239.66644,359.5492 240.59394,361.41545 241.62519,363.1342 C 246.19019,372.51295 256.35144,379.50045 256.35644,379.5792 C 256.42394,379.91545 252.45519,378.9492 247.24519,373.5042 C 244.35894,376.19545 227.75769,391.37545 216.76144,394.4567 C 205.80894,397.52295 184.95894,393.1192 181.13644,392.2642 C 179.37269,394.49045 177.64019,397.0942 176.03394,400.0967 C 173.10394,405.57545 171.17519,410.04295 169.99394,413.6517 C 176.12644,414.94045 209.12519,421.5467 225.40894,418.6267 C 234.94019,416.91795 249.85269,411.5267 269.24644,384.5592 L 269.59394,384.07545 L 270.17894,384.18295 C 270.26769,384.19795 275.57519,385.13545 283.61144,384.1542 C 281.27769,382.54295 279.39769,379.7942 278.35769,376.2492 L 278.35769,376.2492 z"
     style="fill:#007fff" />
  <path
     d="M 441.07769,263.13795 C 445.70644,261.3267 448.69519,257.9142 447.75269,255.5067 C 446.81019,253.0992 442.29894,252.6117 437.67394,254.41795 C 433.04519,256.2242 430.05769,259.64295 430.99519,262.0492 C 431.93769,264.4567 436.44894,264.94545 441.07769,263.13795 L 441.07769,263.13795 z"
     style="fill:#ffffff" />
  <path
     d="M 430.56519,229.3342 C 429.46644,227.13795 428.62644,223.87045 427.84019,219.7892 C 427.59394,218.37295 427.14769,216.02295 426.68144,213.42045 C 426.63769,216.1617 426.43519,219.0992 426.03894,222.1617 C 424.24394,236.0017 419.37644,246.90295 415.16019,246.50295 C 410.94644,246.09795 408.97769,234.5517 410.78019,220.71545 C 412.56894,206.87295 417.43519,195.9767 421.64644,196.3792 C 422.66644,196.47545 423.55019,197.23545 424.28394,198.50795 C 419.63894,172.33295 410.67519,140.1617 379.13394,134.09545 C 367.36644,131.8342 359.23144,140.24295 354.48144,147.6942 C 339.26644,171.5567 335.96019,221.2292 354.64269,247.21545 C 359.72519,251.26295 364.87144,254.62295 370.63769,256.17045 C 380.70644,258.87045 391.50269,256.90295 401.02394,255.1692 C 408.45519,253.81295 415.08144,252.61545 419.60269,254.18295 C 423.80269,249.7992 427.05894,243.5042 432.41519,231.61045 C 431.79019,231.19045 431.14644,230.4917 430.56519,229.3342 L 430.56519,229.3342 z"
     style="fill:#ffffff" />
  <path
     d="M 418.77519,212.00795 C 417.18644,211.9642 415.34269,216.1042 414.64644,221.24795 C 413.95394,226.3917 414.67644,230.5967 416.26769,230.64295 C 417.85519,230.6867 419.70019,226.55545 420.39394,221.41045 C 421.09019,216.26795 420.35269,212.05795 418.77519,212.00795 L 418.77519,212.00795 z"
     style="fill:#ffffff" />
  <path
     d="M 367.55269,116.64045 C 367.09394,116.7667 391.42894,113.5392 405.97019,127.0067 C 421.21394,139.09545 424.93519,163.69545 425.41894,163.1917 C 425.56019,163.17295 425.33519,159.60795 423.45019,152.6992 C 421.35644,146.06795 417.89894,135.02795 406.68269,125.4442 C 395.17894,116.16045 383.83144,115.3667 377.30769,115.24795 C 370.54019,115.31795 367.48894,116.3817 367.55269,116.64045 L 367.55269,116.64045 z"
     style="fill:#000000" />
  <path
     d="M 397.61519,66.06295 C 401.52144,66.06295 403.96394,91.05295 404.17394,103.78295 C 390.95019,96.07295 366.83894,96.60545 359.95894,96.93795 C 364.11519,90.5267 381.06269,66.06295 397.61519,66.06295 z M 404.59769,106.26295 L 406.06269,107.2542 L 406.06269,105.4867 C 406.06269,103.05545 405.70144,92.9042 404.58894,83.4367 C 402.56644,66.18545 399.64269,64.18795 397.61519,64.18795 C 377.60644,64.18795 358.20644,96.1367 357.39144,97.4942 L 356.45894,99.0417 L 358.26019,98.91045 C 358.58269,98.89045 390.49144,96.70295 404.59769,106.26295 L 404.59769,106.26295 z"
     style="fill:#000000" />
  <path
     d="M 333.58769,267.9242 C 326.89769,262.1617 318.56769,257.0592 315.17394,255.2917 C 315.15519,255.2817 315.13519,255.2767 315.11144,255.2717 C 315.34519,255.2192 315.56519,255.16545 315.80394,255.11545 C 325.59394,253.66045 329.93519,255.1792 330.01269,254.3742 C 330.19394,253.69045 322.13769,252.11295 315.34519,253.5142 C 308.23644,254.3642 301.83894,260.5267 302.43019,260.9117 C 302.84519,261.49295 304.90644,257.8067 313.33394,255.7217 C 313.68519,255.87795 314.04644,256.16545 314.73519,256.60545 C 318.87519,259.2317 327.04394,264.2767 333.47519,269.5792 C 340.22769,274.64295 343.74894,280.9367 343.74394,280.97545 C 344.34894,280.78045 340.64269,273.39295 333.58769,267.9242 L 333.58769,267.9242 z"
     style="fill:#000000" />
  <path
     d="M 475.94644,431.91795 C 461.33644,423.6417 435.01269,390.11545 438.40144,370.4817 C 441.88394,370.9017 445.03769,370.65795 447.75269,370.0967 C 459.33019,367.6992 467.66894,358.68045 470.14519,350.8042 C 474.75394,349.95545 478.19144,346.8742 480.16894,341.83045 C 507.28894,331.60045 557.46894,326.82045 559.53019,330.3217 C 559.49019,351.8492 516.09269,396.41045 475.94644,431.91795 z M 456.08769,448.9942 C 427.05894,438.48045 417.35644,406.7767 416.41019,403.4217 C 419.90644,392.0642 421.31644,380.86295 418.68519,373.16295 C 418.47519,372.54295 418.24019,371.9517 417.99644,371.38045 L 424.84269,365.56045 C 428.98769,368.1042 432.92769,369.52545 436.55144,370.1992 C 433.16269,390.3117 459.38769,424.20795 474.46644,433.2217 C 468.18769,438.7542 462.00019,444.0517 456.08769,448.9942 z M 409.79894,483.28545 C 404.07519,483.24545 387.61144,467.30795 385.06644,449.5442 C 388.43144,448.03295 391.97644,445.66795 395.46269,442.1817 C 402.53769,435.1067 410.52144,420.9167 415.41894,406.49295 C 418.36769,415.11545 429.03144,440.5942 454.44644,450.36045 C 431.62894,469.3392 413.21144,482.75295 409.79894,483.28545 z M 372.23519,449.5492 C 369.25644,448.8467 367.07894,447.1967 365.99519,444.8617 C 369.92519,444.6917 378.62144,439.49045 377.83019,438.6267 C 377.83019,438.9192 368.46019,442.9817 365.48644,443.5442 L 365.38894,443.2517 L 364.57894,443.4117 C 354.83269,445.36045 347.98144,444.2367 343.63144,439.9692 C 335.17394,431.67795 337.58144,412.65545 340.96019,393.6567 C 344.39269,395.15545 347.63019,396.93295 350.54019,398.7442 C 350.37519,398.88045 350.24769,399.0667 350.21394,399.29545 C 350.09144,400.01795 347.40644,416.4642 352.86019,423.36795 C 351.30269,424.64295 350.29644,425.1742 350.26269,425.1942 C 349.80269,425.4242 349.61269,425.99045 349.84769,426.4492 C 350.08144,426.91295 350.64269,427.09795 351.10644,426.8692 C 351.63394,426.60045 364.12894,420.0667 370.36519,396.2292 C 374.72019,379.5842 374.69644,368.97795 370.30144,367.12295 C 367.29894,365.85295 363.14769,369.1292 358.91019,376.10295 C 356.64394,374.9017 354.09019,373.70545 351.26769,372.5917 C 361.95644,359.7842 370.19394,353.47045 376.42394,353.3192 C 381.58019,353.1917 385.25269,357.20045 389.14394,361.4442 C 390.14519,362.53795 391.18519,363.66545 392.25894,364.74545 L 392.71894,365.2042 L 393.00144,365.0717 C 393.00144,365.1892 393.03144,365.3117 393.12394,365.43795 C 396.62519,369.29045 398.50394,384.7792 398.66019,384.73045 C 399.67144,384.82795 398.35269,367.8892 394.20769,364.5842 C 396.57519,363.7242 403.21144,361.7517 408.91019,364.2317 C 412.60144,365.8342 415.29144,369.0417 416.90769,373.76795 C 422.73269,390.7942 406.95144,428.04045 394.13394,440.85295 C 385.86769,449.12545 377.40144,450.77045 372.23519,449.5492 z M 331.49269,388.58795 C 319.41769,386.0442 303.62644,384.53045 294.73019,383.8167 C 297.57644,382.95795 300.57519,381.8492 303.67519,380.4192 C 310.61394,377.21545 316.43394,373.1917 321.30769,368.87045 C 351.21394,368.97295 368.15769,384.1342 370.63394,386.51795 C 370.14019,389.21795 369.46144,392.2792 368.54894,395.75545 C 367.43019,400.04295 366.09269,403.7492 364.66144,406.9467 C 360.93144,403.57795 347.08894,391.8742 331.49269,388.58795 z M 288.78769,383.38295 C 288.21644,383.34795 287.87894,383.3292 287.85019,383.3242 C 287.52269,383.3092 287.23519,383.47045 287.05394,383.7192 L 286.87894,383.7492 C 283.88519,383.0117 281.36144,380.0667 280.11144,375.8142 C 278.42144,370.0767 275.60394,348.76795 309.52019,314.5942 L 313.62644,317.22545 C 320.08644,321.40545 330.33019,328.0317 341.98144,334.39295 C 341.90269,334.49045 341.83894,334.60295 341.80519,334.73045 C 341.72269,335.02795 333.00144,364.81795 302.88894,378.7142 C 297.86519,381.0392 293.07519,382.4892 288.78769,383.38295 z M 270.17894,384.18295 L 269.59394,384.07545 L 269.24644,384.5592 C 249.85269,411.5267 234.94019,416.91795 225.40894,418.6267 C 209.12519,421.5467 176.12644,414.94045 169.99394,413.6517 C 171.17519,410.04295 173.10394,405.57545 176.03394,400.0967 C 177.64019,397.0942 179.37269,394.49045 181.13644,392.2642 C 184.95894,393.1192 205.80894,397.52295 216.76144,394.4567 C 227.75769,391.37545 244.35894,376.19545 247.24519,373.5042 C 252.45519,378.9492 256.42394,379.91545 256.35644,379.5792 C 256.35144,379.50045 246.19019,372.51295 241.62519,363.1342 C 240.59394,361.41545 239.66644,359.5492 238.84144,357.66545 C 238.90019,357.3667 238.83144,357.0442 238.59769,356.81545 C 238.54894,356.7617 238.48519,356.7367 238.42644,356.69795 C 235.29644,349.2667 233.69019,341.8492 233.28519,341.9467 C 233.21144,341.8792 233.03144,347.3767 236.99019,357.0692 C 234.95519,358.80295 221.59019,368.7342 193.48019,359.2717 C 212.59144,352.2542 223.49019,346.7617 226.08769,338.80295 C 227.52769,334.3792 226.41019,329.30045 222.46894,322.64045 C 229.31519,326.70295 233.16269,329.8817 233.26519,329.9742 C 233.66019,330.3067 234.25144,330.25795 234.58894,329.8617 C 234.92019,329.4667 234.87144,328.87545 234.47644,328.5392 C 234.35394,328.4367 229.23644,324.19295 220.22769,319.19295 C 220.09644,319.0717 219.95019,318.98295 219.78394,318.9492 C 206.87394,311.8492 186.22269,303.36795 160.91644,303.0067 C 181.06644,271.58545 246.43894,257.72795 251.41519,256.71295 C 258.03144,259.9942 264.65644,263.49045 271.59019,267.1517 C 280.49644,271.8592 289.71019,276.72795 300.10644,281.7617 C 315.79394,289.3642 330.71644,292.51795 344.64644,293.07045 C 345.05769,294.40795 345.37019,297.3917 345.57519,299.60295 C 345.78519,301.8792 345.78519,304.6867 345.84394,305.88295 C 338.24519,301.9517 330.62894,297.73795 323.99769,293.7242 C 314.63769,288.06045 308.13394,291.19545 305.16519,296.0192 C 301.96644,301.2192 302.45019,309.18795 307.99144,313.4267 C 273.61144,348.18795 276.60019,370.2717 278.35769,376.2492 C 279.39769,379.7942 281.27769,382.54295 283.61144,384.1542 C 275.57519,385.13545 270.26769,384.19795 270.17894,384.18295 z M 157.40144,447.93295 C 151.33644,447.03545 146.62019,442.6942 145.09644,436.60045 L 144.92019,435.88795 L 144.64269,435.88795 C 144.64269,435.86795 144.65144,435.84795 144.64644,435.8242 C 143.65644,432.34795 140.82894,422.3667 140.79894,422.2792 C 139.77394,422.3867 141.72269,432.74295 143.16769,435.88795 C 134.57894,435.85795 124.47644,435.1117 124.47644,415.7067 C 124.47644,413.9442 124.59394,412.1567 124.80769,410.34545 C 124.80769,410.34045 124.81269,410.33545 124.81269,410.33045 C 124.81269,410.3217 124.81269,410.3067 124.81769,410.2967 C 127.83019,385.0092 150.47769,356.16045 158.17769,352.73795 C 163.44144,350.3942 173.70519,348.9492 180.03269,353.06545 C 183.54894,355.35045 185.36394,359.0717 185.46644,364.10545 C 185.41394,364.10045 185.36019,364.09045 185.29644,364.10545 C 180.66769,364.3542 170.20894,371.80545 171.01394,372.6017 C 171.01894,372.35295 181.82019,366.31295 185.48644,365.44795 L 185.48644,365.74045 L 186.64394,365.46295 C 194.79894,363.5042 200.72144,364.3342 204.24144,367.92795 C 208.66519,372.44545 209.40269,381.59545 206.34644,393.7342 C 203.69019,393.70045 200.92144,393.5142 198.23144,393.2367 C 200.86269,384.74045 198.25019,382.13795 196.41519,381.3517 C 192.71394,379.7692 186.09144,383.2067 179.99769,390.7167 C 179.97269,390.74545 179.95519,390.77045 179.93519,390.7992 C 177.97144,393.2267 176.06644,396.06795 174.33394,399.30545 C 163.42144,419.71045 166.35644,425.54045 169.07144,427.20045 C 172.87019,429.52045 179.66644,425.8142 184.54394,418.76795 C 184.62269,418.6517 184.67144,418.5192 184.69019,418.39295 C 187.68894,418.87545 190.94144,419.3592 194.30019,419.7892 C 177.35269,447.54795 162.88894,448.7392 157.40144,447.93295 z M 102.84019,442.11295 C 106.40019,434.72045 106.86894,425.6042 104.05144,416.60045 C 98.96894,400.37545 83.90519,386.1167 61.60519,376.3517 C 67.13269,370.2042 72.64019,364.29545 77.91394,358.81295 C 107.92769,370.5167 124.75394,389.6867 122.94769,410.16545 L 122.94769,410.1842 C 122.72269,412.0492 122.60144,413.89045 122.60144,415.7067 C 122.60144,421.27295 123.39644,425.43295 124.73019,428.5442 C 117.97769,433.5492 110.55019,438.06545 102.84019,442.11295 z M 13.08394,472.04045 C 8.52894,472.84045 3.69519,473.46045 2.38644,471.9617 C 1.04894,470.43295 2.47894,465.95545 4.64644,459.18295 L 5.69644,455.87795 C 11.89769,436.1417 36.10269,404.8617 60.29144,377.8167 C 82.40144,387.3667 97.30269,401.3217 102.26394,417.1617 C 105.24769,426.69295 104.36894,436.3317 99.87144,443.6467 C 60.66769,463.46045 15.41394,471.6292 13.08394,472.04045 z M 114.97894,325.05795 C 125.08144,320.84795 150.58894,323.7342 164.72519,348.98295 C 161.84894,349.43295 159.27144,350.1992 157.41519,351.0242 C 150.29144,354.18795 130.79394,378.2992 124.55894,401.92795 C 121.89769,384.00795 105.63769,367.7967 79.32019,357.35295 C 96.33644,339.7692 110.68769,326.8442 114.97894,325.05795 z M 173.41144,269.5442 C 174.49519,266.2242 175.16019,262.3717 175.16019,258.0167 C 175.16019,254.72045 174.85269,251.7817 174.36894,249.1342 C 181.32144,249.30045 218.27019,250.56045 234.77894,258.90545 C 224.89144,261.6492 211.82019,265.86295 199.02644,271.7667 C 190.37894,268.9692 177.67394,269.32545 173.41144,269.5442 z M 162.24019,281.0092 C 159.39769,282.1867 156.63394,281.6692 154.42269,279.5742 C 154.49019,279.52045 154.54894,279.4517 154.59394,279.3542 C 155.40894,277.33295 156.80519,273.3092 158.85644,270.2717 C 160.75019,266.9767 163.82644,265.9067 163.90019,265.88795 C 163.90019,265.24295 159.78394,266.26795 157.51269,269.83295 C 155.22269,272.8217 153.88019,276.6442 153.38769,278.56295 L 153.03519,278.2067 L 152.66019,279.8667 C 151.86894,283.3342 150.35519,285.7167 148.15769,286.9567 C 145.51144,288.4467 141.82019,288.39295 136.89769,286.81545 C 141.51769,270.87295 137.44019,253.2167 130.18394,245.5317 C 131.70769,238.9442 128.99769,233.67045 127.29894,231.18045 C 134.04644,231.1367 140.42394,231.2192 146.47269,231.4292 C 146.48769,231.47295 146.49269,231.51795 146.52144,231.5567 C 148.56269,234.22795 155.69144,240.86295 155.99519,240.58045 C 156.39519,240.2092 151.19519,234.1592 148.48019,231.50295 C 153.91019,231.71795 159.08019,232.03045 164.00769,232.44045 C 165.23769,233.5242 173.28519,241.26795 173.28519,258.0167 C 173.28519,270.1067 167.72769,278.7342 162.24019,281.0092 z M 128.42644,299.6817 C 116.72769,314.8867 108.90019,313.79795 104.22269,313.14795 C 103.36769,313.0317 102.63019,312.92795 101.94644,312.92795 C 98.63144,312.92795 90.82394,309.43795 87.74769,306.30295 C 87.68394,306.20545 87.60144,306.1217 87.50394,306.05295 C 86.84894,305.33045 86.45894,304.63295 86.45894,304.00795 C 86.45894,303.16295 86.58019,301.91795 86.73144,300.33545 C 87.32269,294.30545 88.30394,284.21295 84.50519,275.47795 C 83.60269,273.3967 83.59769,271.59045 84.02644,270.0817 C 84.58894,268.1042 85.89269,266.6342 86.91269,265.74045 C 88.23644,264.5792 89.83769,263.66545 91.52144,263.0267 C 91.54144,263.0167 91.56144,263.0167 91.58019,263.0067 C 95.12019,261.6742 99.01769,261.57545 101.46894,263.04545 C 110.10644,268.2267 118.43144,276.40545 114.63769,297.74295 C 114.54394,298.25045 114.88644,298.7392 115.39394,298.8317 C 115.90144,298.9192 116.39019,298.58295 116.48269,298.07045 C 120.10644,277.6742 112.78144,268.47545 104.95894,263.06045 C 108.33394,259.6667 117.25019,252.2942 117.90394,253.2167 C 117.02519,251.1167 106.00394,259.00795 103.74894,262.2542 C 103.30894,261.9717 102.87019,261.69795 102.43019,261.4342 C 99.71019,259.80295 95.67769,259.72045 91.87394,260.9167 C 91.56644,259.38795 90.79019,256.62045 88.97769,253.97795 C 89.68644,250.76045 89.54894,247.62545 88.64644,244.74545 C 92.64519,241.6592 96.11144,235.75545 94.95519,230.33045 C 94.76394,229.43795 94.41769,228.47545 93.87519,227.4992 C 97.57144,224.19295 103.34394,222.76295 107.89894,222.4792 C 106.41894,225.1067 105.21394,227.7867 104.33894,230.5117 L 103.92894,231.79045 L 105.27144,231.7317 C 112.17644,231.4392 118.73394,231.26295 124.98394,231.19545 C 126.06769,232.55795 130.17394,238.3092 128.26019,245.57545 L 128.12394,246.09795 L 128.50394,246.47795 C 137.58644,255.55545 141.64394,282.4942 128.42644,299.6817 z M 85.40894,292.30795 C 83.82644,293.70545 75.63394,300.7267 70.50644,300.7267 C 69.98894,300.7267 69.56894,301.1467 69.56894,301.6642 C 69.56894,302.1817 69.98894,302.6017 70.50644,302.6017 C 75.40394,302.6017 82.20019,297.45545 85.30144,294.8667 C 85.18894,296.8342 85.01769,298.6317 84.86644,300.15545 C 84.71019,301.78545 84.58394,303.07045 84.58394,304.00795 C 84.58394,304.7592 84.88144,305.5267 85.38394,306.28295 C 78.09894,308.2117 62.23519,311.30795 58.02644,307.09795 C 53.32394,302.3967 53.23644,295.77045 57.75269,285.6142 C 61.52644,277.12295 70.11144,268.27045 82.02519,270.6142 C 81.73644,272.43045 81.96144,274.32545 82.78644,276.2242 C 85.05769,281.4442 85.51644,287.2592 85.40894,292.30795 z M 49.30019,271.07795 C 54.25644,260.26295 71.57519,247.2992 80.56019,249.9992 C 83.64144,250.9217 85.73144,252.6942 87.16644,254.61295 C 87.20519,254.6867 87.25894,254.74545 87.31769,254.80795 C 89.22269,257.45045 89.89144,260.3017 90.10644,261.58045 C 88.49519,262.2742 86.97144,263.1917 85.67269,264.3342 C 84.15894,265.66295 83.10894,267.1817 82.49894,268.79795 C 70.26269,266.3467 60.42769,274.9792 56.03894,284.85295 C 55.53144,286.00045 55.01769,287.24045 54.54394,288.5292 C 51.92769,286.3367 45.34519,279.70545 49.30019,271.07795 z M 53.45019,239.7642 C 58.63144,231.99045 69.01269,231.28795 76.59019,234.60795 C 80.81394,236.4592 84.86644,239.81295 86.64394,244.5442 C 86.65394,244.60795 86.68269,244.6717 86.70769,244.74045 C 87.48894,246.90795 87.80644,249.3542 87.42519,252.0842 C 85.87769,250.45295 83.83644,249.0217 81.10269,248.2017 C 72.22019,245.53545 56.69269,255.98545 49.69144,266.58045 C 48.25019,262.56295 45.56519,251.59045 53.45019,239.7642 z M 60.61894,223.24045 C 64.27144,219.95545 69.90644,219.01795 77.36644,220.44795 C 86.62019,222.23045 92.06394,225.78545 93.11894,230.7217 C 94.12019,235.4242 90.92644,240.35545 87.93769,242.9042 C 86.04394,238.66045 82.40644,235.1067 77.34269,232.8892 C 70.70644,229.9842 62.07894,229.95045 55.95019,234.4717 C 56.08269,231.72795 56.86394,226.62045 60.61894,223.24045 z M 248.63144,255.46795 C 246.19519,255.99545 242.27894,256.89295 237.39144,258.1967 C 220.89644,248.47545 180.11519,247.3617 173.97269,247.25045 C 172.23519,239.73545 168.98269,235.04795 166.89769,232.6942 C 202.62519,235.99045 225.80894,244.3692 248.63144,255.46795 z M 185.83769,168.3042 L 187.06894,167.8017 L 186.18519,166.81545 C 175.95519,155.3017 162.13269,146.5367 148.34769,139.9792 C 148.20144,139.84295 148.01644,139.74545 147.81144,139.72545 C 126.02894,129.4567 104.46644,124.6817 97.43519,123.30545 C 167.24019,79.4667 227.46894,86.62545 228.07519,86.70295 L 229.48144,86.88795 L 229.09519,85.5217 C 218.26519,47.1917 168.42644,11.48795 157.24519,3.87045 C 215.17394,-1.6608 266.85894,4.43795 310.87769,22.0642 C 333.26019,31.0242 353.59769,42.9817 371.82519,57.83545 C 358.84144,65.4042 344.86644,78.1242 335.74019,99.4867 C 335.54019,99.9592 335.76019,100.5117 336.23394,100.7167 C 336.71269,100.9217 337.26394,100.6967 337.46394,100.22295 C 337.48894,100.16545 337.51769,100.1117 337.54269,100.05795 C 358.23644,51.8592 403.93394,48.7142 404.63769,48.70045 C 404.74519,48.7342 405.65769,49.10045 407.67894,52.1917 C 414.13394,62.0792 426.36519,92.3667 420.63769,117.95295 L 420.63769,117.96295 C 420.52644,118.4617 420.84394,118.96045 421.34644,119.0717 C 421.84894,119.18295 422.35269,118.86545 422.46394,118.36295 C 422.67894,117.41045 422.86019,116.46045 423.03144,115.49795 C 426.98644,121.6167 430.76019,127.96795 434.33894,134.5592 C 453.41144,169.6917 447.13769,212.53795 438.26519,226.6592 C 436.77144,229.0317 435.27644,230.36545 434.16894,230.3117 C 433.30394,230.26795 432.64519,229.30045 432.24519,228.50045 C 430.45269,224.91045 429.28144,217.56295 427.92769,209.0567 C 423.52394,181.3367 416.86394,139.4417 379.49019,132.2542 C 369.35894,130.3067 360.16019,135.2967 352.89894,146.68295 C 338.29894,169.5792 334.47144,215.79045 349.94019,243.3042 C 349.15894,242.63545 348.37269,241.9617 347.58644,241.27795 C 334.99894,230.4042 321.56144,217.89795 300.61394,225.1017 C 285.18894,230.51295 280.73144,241.2542 279.23144,247.92795 C 277.42519,255.99045 279.99394,264.9992 286.13144,272.7767 C 285.09644,272.24045 284.07144,271.70795 283.05519,271.18045 C 283.08394,270.87295 282.80644,270.2867 282.00019,269.3692 C 275.97019,262.5717 265.38894,248.0317 259.53519,233.57795 C 253.34394,219.2517 251.84894,205.86295 251.55144,205.9317 C 251.33644,205.88295 252.45894,220.66795 259.03644,235.77545 C 264.90144,250.32545 275.29144,264.2767 280.60394,269.9017 C 277.83519,268.45045 275.11144,267.01045 272.42019,265.5892 C 271.22394,264.9592 270.03769,264.3342 268.86144,263.7142 L 268.64144,263.59795 C 267.49394,262.9917 266.35644,262.3967 265.22269,261.80045 C 265.11144,261.7417 264.99394,261.67795 264.88144,261.62045 C 264.51144,261.4242 264.14269,261.2342 263.77269,261.0417 C 263.04019,260.6592 262.30644,260.27545 261.58019,259.8967 C 261.43894,259.82795 261.30269,259.7542 261.16519,259.6817 C 260.85019,259.5192 260.53644,259.3592 260.22144,259.19545 C 259.44019,258.79295 258.65894,258.3892 257.87894,257.9917 C 257.76769,257.93295 257.65519,257.87545 257.54769,257.8217 C 256.42894,257.25045 255.31644,256.68295 254.20269,256.1267 C 254.12519,256.08795 254.04644,256.0492 253.96394,256.0092 C 252.81644,255.42795 251.66394,254.8567 250.51144,254.29545 C 250.50644,254.29045 250.50144,254.29045 250.49644,254.28545 C 248.85394,253.4817 247.20894,252.6942 245.55894,251.91795 C 245.30019,251.7967 245.04144,251.67545 244.78269,251.5542 C 243.11269,250.7742 241.43894,250.0067 239.75394,249.2567 C 239.70519,249.2317 239.65144,249.20795 239.60269,249.18795 C 239.00394,248.9217 238.39894,248.66295 237.79644,248.40045 C 237.23019,248.1542 236.66519,247.9042 236.09769,247.66045 C 236.02894,247.63545 235.96519,247.6067 235.90144,247.5767 C 234.72519,247.0792 233.54394,246.58545 232.35269,246.10295 C 232.29894,246.08295 232.24019,246.05795 232.18644,246.0342 C 230.97519,245.54545 229.75394,245.06295 228.52394,244.5892 C 228.50894,244.5842 228.49019,244.5792 228.47519,244.5692 C 227.59519,244.2317 226.70269,243.9042 225.81144,243.57545 C 223.91894,242.8767 222.00019,242.19795 220.05019,241.54045 C 217.64644,240.7317 215.20019,239.9517 212.68894,239.21295 C 212.67894,239.21295 212.66519,239.20795 212.65519,239.20295 C 212.06269,239.02795 211.45019,238.8642 210.84894,238.69295 C 210.07394,238.47295 209.30644,238.24795 208.51894,238.03545 C 208.49894,238.03045 208.47894,238.0242 208.46019,238.01795 C 208.44769,238.0142 208.43519,238.01045 208.42144,238.0067 C 207.88519,237.8617 207.33144,237.72545 206.78894,237.5842 C 205.92019,237.35795 205.05769,237.12795 204.17394,236.90795 C 204.15394,236.90295 204.13394,236.89795 204.12019,236.89295 C 203.99144,236.8617 203.85894,236.8317 203.73019,236.80045 C 202.56269,236.51295 201.38019,236.23295 200.18519,235.96045 C 199.75894,235.8642 199.32894,235.7692 198.89894,235.6742 C 197.90769,235.4542 196.90644,235.24045 195.89394,235.03045 C 195.47769,234.9442 195.06269,234.85795 194.64394,234.7742 C 193.26644,234.4967 191.87644,234.2267 190.45894,233.9692 C 190.41519,233.9617 190.37019,233.95295 190.32769,233.94545 C 188.92144,233.6917 187.48894,233.4492 186.04144,233.2142 C 185.53769,233.13295 185.02644,233.0542 184.52019,232.97545 C 183.51894,232.8192 182.50894,232.66795 181.49019,232.5217 C 180.91019,232.43795 180.33269,232.3542 179.74519,232.2742 C 178.63519,232.1217 177.50769,231.97795 176.37019,231.8367 C 175.97894,231.78795 175.59769,231.73545 175.20394,231.68795 C 175.19019,231.68295 175.17144,231.68295 175.15269,231.6792 C 175.15144,231.67795 175.15144,231.67795 175.15019,231.67795 C 173.37769,231.4692 171.57519,231.26795 169.74519,231.08295 L 169.74144,231.08295 L 169.74019,231.08295 C 169.71144,231.0792 169.68019,231.07795 169.65144,231.0742 C 168.04769,230.9142 166.41019,230.76545 164.75394,230.6267 C 164.16644,230.5767 163.57019,230.53045 162.97519,230.48295 C 161.81019,230.3917 160.63144,230.3042 159.43894,230.2217 C 158.80144,230.1792 158.16644,230.1342 157.52144,230.09295 C 156.01644,229.9992 154.49144,229.9117 152.94519,229.83295 C 152.40269,229.80545 151.85769,229.78045 151.31019,229.7542 C 149.80019,229.68545 148.26894,229.62295 146.71769,229.56795 C 145.96519,229.5417 145.20019,229.52045 144.43769,229.49795 C 143.25519,229.4642 142.05894,229.43295 140.85019,229.40795 C 140.03269,229.39045 139.21519,229.37295 138.38519,229.3592 C 137.00519,229.33795 135.60144,229.3242 134.18769,229.3142 C 133.64144,229.31045 133.10894,229.30295 132.55769,229.30045 L 132.49894,229.30045 C 130.19394,229.29045 127.85019,229.30045 125.46269,229.32045 L 125.45769,229.32045 L 125.45269,229.32045 L 125.44769,229.32045 C 125.29769,229.3217 125.14269,229.32545 124.99269,229.3267 C 123.69519,229.3417 122.38894,229.3617 121.06269,229.3842 C 120.97894,229.3842 120.89519,229.38545 120.81144,229.3867 C 120.78269,229.38795 120.75394,229.38795 120.72644,229.38795 C 119.87019,229.4042 118.99769,229.42545 118.13019,229.44545 C 117.66144,229.4567 117.19769,229.4642 116.72769,229.4767 C 116.45894,229.4817 116.20019,229.4867 115.93644,229.49545 C 114.73519,229.52545 113.51394,229.5642 112.29394,229.60295 C 112.01269,229.61045 111.73519,229.61795 111.45644,229.62545 C 111.37019,229.62795 111.28519,229.63045 111.20019,229.63295 C 109.67144,229.6867 108.12894,229.74045 106.56644,229.80295 C 118.81269,196.0092 185.16519,168.57795 185.83769,168.3042 z M 83.51394,186.0092 C 110.28144,155.0817 143.64144,143.03545 147.60144,141.68795 C 160.77519,147.96295 173.95394,156.26795 183.89519,167.0842 C 177.88394,169.62795 152.62519,180.79045 131.85894,196.81545 C 128.36269,194.4717 110.84769,183.87045 83.51394,186.0092 z M 419.60269,254.18295 C 415.08144,252.61545 408.45519,253.81295 401.02394,255.1692 C 391.50269,256.90295 380.70644,258.87045 370.63769,256.17045 C 364.87144,254.62295 359.72519,251.26295 354.64269,247.21545 C 335.96019,221.2292 339.26644,171.5567 354.48144,147.6942 C 359.23144,140.24295 367.36644,131.8342 379.13394,134.09545 C 410.67519,140.1617 419.63894,172.33295 424.28394,198.50795 C 425.91769,201.33795 426.79019,206.7667 426.68144,213.42045 C 427.14769,216.02295 427.59394,218.37295 427.84019,219.7892 C 428.62644,223.87045 429.46644,227.13795 430.56519,229.3342 C 431.14644,230.4917 431.79019,231.19045 432.41519,231.61045 C 427.05894,243.5042 423.80269,249.7992 419.60269,254.18295 z M 421.46394,257.42545 C 420.82394,258.6167 420.19894,259.92545 419.61269,261.3367 C 418.08019,263.49545 417.33269,265.66795 417.57144,267.63045 C 417.22019,269.11045 416.94644,270.66295 416.75644,272.2842 C 411.67769,275.5017 358.06019,307.8792 300.87769,280.1692 C 297.35644,278.46545 293.98269,276.7767 290.69644,275.1117 C 282.70894,267.0692 279.10519,257.0692 281.06269,248.3392 C 283.05019,239.41795 289.63269,230.88545 301.14394,226.8142 C 321.07519,219.84545 334.17769,232.1767 346.36144,242.6992 C 353.70519,249.0417 361.30269,255.6042 370.15519,257.9817 C 380.62894,260.7942 391.64394,258.78295 401.36144,257.01545 C 410.28144,255.3892 417.98644,253.98295 421.46394,257.42545 z M 389.07519,351.8742 C 397.44519,352.72295 404.59394,352.9867 410.77519,352.84545 C 415.02269,358.0067 419.19769,361.78545 423.20144,364.49545 L 417.15144,369.63795 C 415.34019,366.27795 412.82519,363.88545 409.64644,362.5042 C 402.90394,359.5792 395.33519,362.11795 393.15769,362.97295 C 392.25894,362.0542 391.38019,361.1067 390.52644,360.1742 C 386.34144,355.6092 382.38644,351.29295 376.38019,351.4442 C 369.41269,351.61545 360.86769,358.08045 349.48644,371.79545 C 349.46144,371.82545 349.45644,371.8642 349.43769,371.89295 C 342.31769,369.29045 333.58769,367.2942 323.30894,367.03045 C 338.41644,352.61545 343.43644,335.8392 343.60269,335.26795 C 358.27519,343.15795 374.95894,350.44295 389.07519,351.8742 z M 378.54894,322.73295 C 383.53894,324.39295 391.13144,325.97545 399.74519,326.67795 C 399.86644,326.71795 399.99894,326.7367 400.13019,326.71795 C 400.13519,326.71795 400.14019,326.71795 400.14519,326.71295 C 411.42394,327.5967 424.39269,326.9567 435.57519,323.0267 C 436.87394,324.75045 438.19144,326.67795 439.52019,328.89545 C 443.04519,334.7692 444.76894,339.6867 445.29644,343.6567 C 440.10144,345.8242 433.86144,348.3392 424.54019,349.7942 C 424.16894,349.4467 423.59269,349.4517 423.23644,349.80795 C 423.17769,349.8667 423.14769,349.93545 423.10894,350.0042 C 414.69644,351.17545 403.87019,351.48795 389.26144,350.0092 C 363.75394,347.42045 329.33894,325.16045 314.64644,315.65295 L 309.88144,312.6017 C 304.39269,309.1692 303.81644,301.81545 306.71769,297.09795 C 309.95019,291.8442 316.02894,291.2142 322.98144,295.4242 C 340.79394,306.2092 365.72144,318.45545 378.54894,322.73295 z M 419.58894,292.4067 C 419.41769,293.1242 419.31519,293.88045 419.26644,294.6567 C 412.82519,294.83795 407.76269,296.90795 404.23644,300.87795 C 399.65644,306.0292 397.89394,314.0617 398.97269,324.74545 C 390.92144,324.01795 383.85144,322.52295 379.13894,320.95045 C 371.51769,318.4117 359.56394,313.0167 347.39644,306.79045 C 347.38144,305.7942 347.31269,302.97795 346.95144,299.5492 C 346.63894,296.57545 346.43894,294.28545 346.34144,293.14795 C 360.09644,293.5442 372.41019,291.49795 382.19144,288.90545 C 399.57894,284.29545 412.23019,277.23045 416.56144,274.61295 C 416.26769,279.94045 417.02519,285.9267 419.58894,292.4067 z M 466.50769,327.9817 C 466.56144,328.05545 470.16519,344.6817 468.91519,348.8417 C 468.91519,348.9342 468.96394,349.0217 469.03144,349.10545 L 468.68519,349.1542 L 468.51894,349.74545 C 466.47269,357.02045 458.36269,365.98045 447.37144,368.26045 C 444.64269,368.8267 441.43394,369.0467 437.87894,368.5092 C 437.86519,368.5092 437.85519,368.50045 437.84019,368.49545 C 437.81144,368.49045 437.78144,368.49545 437.75769,368.49545 C 433.95394,367.9042 429.75394,366.4492 425.29644,363.6217 C 425.25269,363.59295 425.20894,363.55795 425.16519,363.5392 C 421.31644,361.07795 417.27894,357.6017 413.15269,352.76795 C 417.14644,352.5967 420.70644,352.2542 423.92394,351.78545 C 430.67769,358.15795 438.39269,359.8867 443.32894,356.0292 C 445.93144,353.99795 447.75769,350.0717 447.23519,344.3342 C 447.25019,344.18295 447.24019,344.0317 447.17644,343.88045 C 447.17644,343.88045 447.17644,343.87545 447.17144,343.87545 C 446.69269,339.5442 444.90644,334.22795 441.13144,327.92795 C 431.46894,311.83045 421.83019,308.57295 416.50769,310.67795 C 411.91269,312.4942 409.82769,318.1242 411.04394,325.1792 C 407.57644,325.24795 404.16394,325.14045 400.88269,324.9017 C 399.78894,314.5942 401.37519,306.91795 405.63769,302.12295 C 408.95394,298.39295 413.83644,296.49795 420.14519,296.49795 L 421.08269,296.49795 L 421.08269,296.2342 C 421.15144,296.26795 421.22894,296.29295 421.33144,296.29795 C 423.94394,296.48295 429.06144,296.3417 433.35769,297.1517 C 437.78144,297.74295 440.71644,300.34545 440.86769,300.1792 C 441.17519,300.0042 437.99644,296.62045 433.13394,295.7317 C 428.44644,294.6467 423.20644,294.7942 421.18519,294.94545 C 421.16019,294.94545 421.14144,294.9642 421.11644,294.9692 C 421.31269,290.6242 423.59269,287.41045 427.79144,285.66795 C 436.85394,281.91295 454.20269,285.4192 466.41519,297.63045 C 478.35769,309.5792 482.45894,329.29545 478.79269,340.2142 C 477.65519,343.6067 475.25769,347.75795 470.26769,348.89045 C 470.26769,348.88545 470.27144,348.88045 470.27144,348.87045 C 472.23519,343.1042 467.32769,327.56295 466.50769,327.9817 z M 437.67394,254.41795 C 442.29894,252.6117 446.81019,253.0992 447.75269,255.5067 C 448.69519,257.9142 445.70644,261.3267 441.07769,263.13795 C 436.44894,264.94545 431.93769,264.4567 430.99519,262.0492 C 430.05769,259.64295 433.04519,256.2242 437.67394,254.41795 z M 441.20019,271.3217 C 451.93269,267.13295 458.90019,259.30045 456.76144,253.8267 C 454.62269,248.34795 444.19269,247.30795 433.46019,251.50295 C 429.73519,252.95795 426.47769,254.8567 423.88019,256.93795 C 424.38769,256.06295 424.89644,255.26295 425.37894,254.5492 C 430.06644,247.6117 435.94644,243.46545 438.91519,243.46545 L 441.13144,243.46545 C 437.65519,246.62045 434.47644,250.3067 434.77394,250.5892 C 435.12519,250.9317 437.95269,248.3342 443.90019,243.25545 C 449.87144,238.2017 452.51769,236.07295 452.12769,235.58045 C 451.74644,235.0867 446.70769,238.66545 442.74269,242.0642 C 444.47144,226.30295 456.09769,215.77545 466.50769,214.6817 C 474.35394,213.8567 480.39394,218.28545 483.07019,226.83045 C 485.31644,235.84795 484.92019,240.02795 484.91519,240.0767 C 484.86144,240.5942 485.22769,241.05795 485.74519,241.1117 C 486.25894,241.17045 486.72269,240.7992 486.78144,240.2867 C 486.80019,240.1117 487.19644,236.1367 485.16019,227.51295 C 508.55269,227.61545 512.13269,230.78545 512.13269,250.03795 L 512.13269,250.85795 L 512.13269,257.0742 C 512.13269,257.5917 512.55269,258.0117 513.07019,258.0117 C 513.58769,258.0117 514.00769,257.5917 514.00769,257.0742 L 514.00769,251.1367 C 518.68519,251.89795 521.69269,253.35295 523.37769,255.6967 C 526.00394,259.3492 525.52144,265.33045 523.88019,273.79295 L 523.80769,274.1742 L 524.02644,274.49545 C 533.01144,287.74295 532.38144,294.2767 527.72769,303.0992 C 514.35894,328.45045 499.65644,329.7842 481.89769,328.49545 C 481.25394,317.83545 476.70269,305.26795 467.73769,296.30795 C 456.34644,284.91545 438.10394,279.3692 427.07394,283.9392 C 424.06644,285.1842 421.87894,287.1567 420.58019,289.6717 C 418.51394,283.59795 418.07019,278.0067 418.56269,273.07045 C 418.59269,272.97295 418.59769,272.87545 418.59769,272.7717 C 418.67519,272.04045 418.77269,271.3167 418.89019,270.6142 C 422.31769,274.62795 431.62894,275.06295 441.20019,271.3217 z M 560.45269,328.6567 C 553.98269,324.19795 504.69644,331.07795 480.92144,339.5642 C 481.66394,336.8542 482.02519,333.7442 481.96644,330.3792 C 499.73019,331.6442 515.57519,330.1692 529.38394,303.97295 C 534.24644,294.75045 535.01769,287.5092 525.79394,273.77295 C 527.46394,265.01795 527.87894,258.7442 524.90144,254.59795 C 522.87019,251.7767 519.37394,250.0717 513.99769,249.2367 C 513.88019,229.3792 509.25144,225.7017 484.63769,225.63795 C 481.60019,216.71295 474.79894,211.92795 466.31269,212.8167 C 455.21894,213.98295 442.85519,225.03795 440.91644,241.59045 L 438.91519,241.59045 C 434.83769,241.59045 428.49019,246.60045 423.82644,253.50045 C 423.36269,254.18295 422.88394,254.94045 422.39644,255.76045 C 422.07894,255.4867 421.74644,255.24295 421.39519,255.02295 C 425.59394,250.44795 428.89519,243.99795 434.21769,232.1767 C 436.06269,232.1867 437.95769,230.67295 439.85269,227.65545 C 448.93394,213.2017 455.40394,169.43795 435.98519,133.66545 C 432.04019,126.39545 427.85019,119.41795 423.44644,112.7192 C 426.85394,86.1317 414.03644,56.92795 407.76769,49.09545 C 406.52144,47.54295 405.53519,46.82545 404.65644,46.82545 C 404.39769,46.82545 390.00894,47.7767 373.58269,56.8392 C 355.06269,41.6592 334.36894,29.4517 311.57519,20.32545 C 266.60019,2.31795 213.72394,-3.7658 154.41769,2.24045 L 151.74144,2.51295 L 154.00269,3.9642 C 154.61269,4.3542 214.06144,42.87545 226.89269,84.70545 C 217.25394,83.89545 159.71519,81.16545 94.40269,123.0017 L 92.34269,124.32045 L 94.75894,124.7167 C 95.14519,124.7792 119.77394,128.9242 145.19394,140.56545 C 136.67769,143.7392 105.45769,156.8542 80.58019,186.5417 L 79.09519,188.3142 L 81.39519,188.08045 C 108.32894,185.3067 125.91644,195.2142 130.30144,198.03545 C 121.76144,204.80295 114.10519,212.4017 109.04144,220.55545 C 106.39519,220.6142 98.24519,221.2142 92.81644,225.9367 C 90.50644,223.04545 86.06769,220.2142 77.72269,218.6067 C 69.64644,217.0542 63.46519,218.14795 59.34894,221.8592 C 54.01769,226.6742 53.97769,234.22295 54.05644,236.10295 C 53.27519,236.8842 52.54269,237.74795 51.89269,238.7242 C 42.44019,252.8992 47.33769,265.99045 48.47519,268.58295 C 48.15269,269.1592 47.85519,269.73045 47.59644,270.2967 C 42.85519,280.63795 51.54644,288.5242 53.90519,290.4092 C 52.03519,296.38045 51.50769,303.2317 56.69769,308.4267 C 62.46894,314.19295 83.16269,308.8417 86.73644,307.86045 C 90.64269,311.59045 98.78769,314.80295 101.94644,314.80295 C 102.49894,314.80295 103.17769,314.8967 103.96394,315.0042 C 108.70894,315.66795 117.54769,316.89795 129.91019,300.8242 C 132.79644,297.0742 134.89644,292.9192 136.33644,288.60295 C 141.77644,290.34545 145.95519,290.35045 149.08019,288.59295 C 151.41519,287.2742 153.09894,284.9792 154.09519,281.7517 C 156.69269,283.69045 159.78394,284.0567 162.95769,282.74295 C 166.56144,281.2492 170.33019,277.3567 172.70894,271.4642 C 175.49019,271.30295 187.62019,270.76545 196.45394,272.9817 C 180.86269,280.4817 166.05269,290.53545 158.39644,303.5342 L 157.56644,304.94545 L 159.20769,304.94545 C 184.98394,304.94545 205.99019,313.59795 218.95394,320.74545 C 224.08019,328.4117 225.72144,333.8417 224.25644,338.3142 C 221.80019,345.8442 209.95894,351.4192 190.33019,358.5042 L 187.90894,359.3842 L 190.32519,360.26795 C 217.64519,370.2717 232.11269,363.17295 237.69394,358.9292 C 238.42644,360.6042 239.26644,362.3767 240.25769,364.2667 C 242.19644,367.54295 244.12019,370.13545 245.93144,372.21545 C 243.22144,374.73545 226.67769,389.81295 216.20894,392.74295 C 213.95894,393.37295 211.21894,393.66045 208.28019,393.7242 C 210.53144,384.5692 211.71269,372.87545 205.58019,366.61545 C 201.73644,362.6942 195.58894,361.61545 187.30769,363.39295 C 187.04394,358.04045 184.95894,354.0317 181.05269,351.49295 C 176.90769,348.79795 171.54644,348.26045 166.72769,348.7242 C 151.93769,321.50795 125.32144,318.7142 114.26144,323.3242 C 102.51769,328.2167 16.47769,415.3067 3.90519,455.3167 L 2.86019,458.6117 C 0.33519,466.51795 -1.05606,470.86795 0.97519,473.1917 C 2.58644,475.04295 5.84394,475.22295 13.41144,473.88545 C 16.27269,473.38295 83.55269,461.2342 125.58019,430.24795 C 129.67644,437.4792 137.24519,437.75295 143.48519,437.76295 C 145.37519,444.2317 150.53519,448.8167 157.13269,449.7842 C 163.03519,450.65795 178.62019,449.4667 196.34144,420.04295 C 206.76644,421.29295 217.94269,421.9567 225.69644,420.56545 C 235.48644,418.80795 250.75019,413.3242 270.37894,386.2142 C 272.42019,386.51295 279.47144,387.2642 289.01269,385.2767 C 294.39769,385.6342 315.79019,387.20045 331.10644,390.4242 C 333.86144,391.0042 336.57144,391.8692 339.18769,392.9142 C 335.68269,412.54295 333.15269,432.32295 342.32269,441.30795 C 347.02519,445.9267 354.18769,447.2542 364.18769,445.3892 C 365.47269,448.35795 368.19144,450.5217 371.80519,451.37545 C 374.82269,452.0892 378.85144,451.91795 383.28519,450.2767 C 386.13644,468.45545 403.00644,485.16545 409.81769,485.16545 C 412.41019,485.16545 432.51769,470.4092 456.46394,450.5892 C 456.48769,450.56545 456.51769,450.55045 456.53644,450.5267 C 462.96769,445.2042 469.66144,439.52545 476.38019,433.66045 C 476.38519,433.6567 476.39019,433.6517 476.40019,433.6467 C 480.30144,430.23795 484.20269,426.7817 488.06019,423.29045 C 521.52144,393.0317 561.40519,352.33295 561.40519,330.2917 C 561.40519,329.84295 561.23894,329.19795 560.45269,328.6567 L 560.45269,328.6567 z"
     style="fill:#000000" />
  <path
     d="M 420.39394,221.41045 C 419.70019,226.55545 417.85519,230.6867 416.26769,230.64295 C 414.67644,230.5967 413.95394,226.3917 414.64644,221.24795 C 415.34269,216.1042 417.18644,211.9642 418.77519,212.00795 C 420.35269,212.05795 421.09019,216.26795 420.39394,221.41045 z M 421.64644,196.3792 C 417.43519,195.9767 412.56894,206.87295 410.78019,220.71545 C 408.97769,234.5517 410.94644,246.09795 415.16019,246.50295 C 419.37644,246.90295 424.24394,236.0017 426.03894,222.1617 C 426.43519,219.0992 426.63769,216.1617 426.68144,213.42045 C 426.79019,206.7667 425.91769,201.33795 424.28394,198.50795 C 423.55019,197.23545 422.66644,196.47545 421.64644,196.3792 L 421.64644,196.3792 z"
     style="fill:#000000" />
</svg>
